<?xml version="1.0" standalone="no"?>
<!DOCTYPE svg PUBLIC "-//W3C//DTD SVG 20010904//EN"
 "http://www.w3.org/TR/2001/REC-SVG-20010904/DTD/svg10.dtd">
<svg version="1.0" xmlns="http://www.w3.org/2000/svg"
 width="2000.000000pt" height="2000.000000pt" viewBox="0 0 2000.000000 2000.000000"
 preserveAspectRatio="xMidYMid meet">
<metadata>
Created by potrace 1.14, written by Peter Selinger 2001-2017
</metadata>
<g transform="translate(0.000000,2000.000000) scale(0.100000,-0.100000)"
fill="#000000" stroke="none">
<path d="M9818 15355 c-1 -1 -34 -5 -73 -8 -131 -12 -407 -67 -485 -97 -14 -6
-34 -12 -45 -14 -39 -8 -207 -76 -322 -131 -456 -217 -826 -552 -1089 -987
-61 -101 -165 -309 -193 -388 -7 -19 -17 -44 -21 -55 -13 -31 -51 -142 -55
-162 -2 -10 -11 -46 -20 -80 -9 -35 -18 -73 -21 -85 -14 -69 -24 -122 -30
-165 -3 -26 -8 -51 -10 -54 -7 -12 -17 -209 -17 -339 0 -202 9 -303 49 -519
14 -71 40 -168 71 -266 158 -488 459 -920 859 -1229 54 -43 106 -83 114 -89
43 -34 230 -143 335 -195 189 -94 389 -164 588 -206 210 -45 270 -51 537 -51
129 0 267 3 305 8 66 7 83 9 145 22 14 2 40 7 58 10 66 11 278 66 324 84 12 5
50 19 83 32 341 127 639 322 910 593 238 238 415 496 534 776 18 41 36 84 41
95 21 46 39 95 35 95 -2 0 2 15 10 34 18 42 70 233 81 296 4 25 8 47 9 50 1 3
5 30 9 60 5 30 10 64 12 75 23 118 22 530 0 652 -2 10 -7 43 -11 73 -4 30 -13
84 -22 120 -8 36 -17 76 -19 90 -3 14 -7 32 -10 40 -3 8 -8 25 -10 37 -9 45
-77 240 -114 324 -185 418 -419 722 -795 1028 -149 121 -462 292 -680 371 -49
17 -97 35 -105 38 -19 7 -138 41 -165 47 -34 8 -129 28 -145 31 -39 7 -157 25
-194 30 -44 6 -452 14 -458 9z"/>
<path d="M3169 6416 c-2 -2 -20 -6 -39 -9 -125 -18 -253 -68 -365 -142 -117
-78 -245 -227 -303 -355 -88 -191 -108 -433 -51 -623 92 -309 325 -536 639
-619 l85 -23 6845 0 c3765 0 6868 3 6896 7 129 19 300 93 404 176 292 233 410
605 304 963 -87 293 -352 540 -649 605 -5 1 -23 6 -40 10 -29 8 -13717 18
-13726 10z"/>
</g>
</svg>
